# xmcd
#
# Track frame offsets:
#	150
#	18212
#	34380
#	50727
#	68642
#	82422
#	96872
#	113547
#	130317
#	147520
#	163957
#	180625
#	194970
#	210435
#	225907
#
# Disc length: 3249 seconds
#
# Revision: 1
# Processed by: cddbd v1.5.1PL2 Copyright (c) Steve Scherf et al.
# Submitted via: audiograbber 1.83.01
#
DISCID=db0caf0f
DTITLE=Music Maestro - MM6251
DYEAR=1900
DGENRE=Karaoke
TTITLE0=Jackson, Alan - I'll Go On Loving You
TTITLE1=Rimes, LeAnn - Nothin' New Under The Moon
TTITLE2=Ricochet - Honky Tonk Baby
TTITLE3=Womack, Lee Ann - Little Past Little Rock, A
TTITLE4=Daniels, Clint - Fool's Progress, A
TTITLE5=Harling, Keith - Coming Back For You
TTITLE6=Twain, Shania - Honey I'm Home
TTITLE7=Dixie Chicks, The - Wide Open Spaces
TTITLE8=Lonestar - Everything's Changed
TTITLE9=Wills, Mark - Don't Laugh At Me
TTITLE10=Sihgletary, Daryl - My Baby's Lovin'
TTITLE11=Lawrence, Tracy - While You Sleep
TTITLE12=McGraw, Tim - Where The Green Grass Grows
TTITLE13=Kinleys, The - You Make It Seem So Easy
TTITLE14=McEntire, Reba - Forever Love
EXTD=As Listed In KJ Pro
EXTT0=
EXTT1=
EXTT2=
EXTT3=
EXTT4=
EXTT5=
EXTT6=
EXTT7=
EXTT8=
EXTT9=
EXTT10=
EXTT11=
EXTT12=
EXTT13=
EXTT14=
PLAYORDER=
